<?xml version="1.0" encoding="utf-8" standalone="no"?>
<!DOCTYPE svg PUBLIC "-//W3C//DTD SVG 1.1//EN"
  "http://www.w3.org/Graphics/SVG/1.1/DTD/svg11.dtd">
<svg xmlns:xlink="http://www.w3.org/1999/xlink" width="2894.4pt" height="331.2pt" viewBox="0 0 2894.4 331.2" xmlns="http://www.w3.org/2000/svg" version="1.1">
 <metadata>
  <rdf:RDF xmlns:dc="http://purl.org/dc/elements/1.1/" xmlns:cc="http://creativecommons.org/ns#" xmlns:rdf="http://www.w3.org/1999/02/22-rdf-syntax-ns#">
   <cc:Work>
    <dc:type rdf:resource="http://purl.org/dc/dcmitype/StillImage"/>
    <dc:date>2026-06-22T11:44:02.448424</dc:date>
    <dc:format>image/svg+xml</dc:format>
    <dc:creator>
     <cc:Agent>
      <dc:title>Matplotlib v3.10.7, https://matplotlib.org/</dc:title>
     </cc:Agent>
    </dc:creator>
   </cc:Work>
  </rdf:RDF>
 </metadata>
 <defs>
  <style type="text/css">*{stroke-linejoin: round; stroke-linecap: butt}</style>
 </defs>
 <g id="figure_1">
  <g id="patch_1">
   <path d="M 0 331.2 
L 2894.4 331.2 
L 2894.4 0 
L 0 0 
z
" style="fill: #ffffff"/>
  </g>
  <g id="axes_1">
   <g id="matplotlib.axis_1"/>
   <g id="matplotlib.axis_2"/>
   <g id="patch_2">
    <path d="M 187.2 15.6 
C 161.284969 15.6 135.806886 22.315888 113.259154 35.090417 
C 90.711421 47.864946 71.854385 66.267337 58.53348 88.49665 
L 187.2 165.6 
z
" style="fill: #808080; stroke: #ffffff; stroke-width: 1.5; stroke-linejoin: miter"/>
   </g>
   <g id="patch_3">
    <path d="M 58.533486 88.496639 
C 48.115902 105.881014 41.328823 125.197747 38.583036 145.277664 
C 35.837241 165.357582 37.189271 185.787242 42.557292 205.33019 
C 47.925313 224.873136 57.198792 243.126945 69.816466 258.986856 
C 82.434141 274.846767 98.136221 287.98622 115.972335 297.609923 
L 187.2 165.6 
z
" style="fill: #29bb00; fill-opacity: 0.75; stroke: #ffffff; stroke-width: 1.5; stroke-linejoin: miter"/>
   </g>
   <g id="patch_4">
    <path d="M 115.972335 297.609923 
C 118.384226 298.911287 120.831326 300.14631 123.310885 301.313598 
C 125.790445 302.480887 128.301529 303.580002 130.841308 304.609702 
L 187.2 165.6 
z
" style="fill: #ffbc37; fill-opacity: 0.75; stroke: #ffffff; stroke-width: 1.5; stroke-linejoin: miter"/>
   </g>
   <g id="patch_5">
    <path d="M 130.841308 304.609702 
C 149.749435 312.275625 170.024376 316.003726 190.422696 315.565373 
C 210.821017 315.127019 230.917083 310.531367 249.47843 302.060245 
C 268.039777 293.589122 284.679057 281.419332 298.375901 266.297163 
C 312.072744 251.174993 322.541316 233.416021 329.139569 214.109373 
L 187.2 165.6 
z
" style="fill: #35a7ff; fill-opacity: 0.75; stroke: #ffffff; stroke-width: 1.5; stroke-linejoin: miter"/>
   </g>
   <g id="patch_6">
    <path d="M 329.139569 214.109373 
C 336.856597 191.52916 339.075186 167.430065 335.610416 143.820449 
C 332.145654 120.210837 323.096543 97.765293 309.217229 78.354393 
C 295.337915 58.943496 277.024963 43.121861 255.804527 32.208024 
C 234.584092 21.294187 211.062512 15.6 187.200021 15.6 
L 187.2 165.6 
z
" style="fill: #b339ff; fill-opacity: 0.75; stroke: #ffffff; stroke-width: 1.5; stroke-linejoin: miter"/>
   </g>
  </g>
  <g id="axes_2">
   <g id="matplotlib.axis_3"/>
   <g id="matplotlib.axis_4"/>
   <g id="patch_7">
    <path d="M 547.2 15.6 
C 517.528839 15.6 488.514357 24.403778 463.846115 40.891821 
C 439.177872 57.379865 419.947778 80.822351 408.601184 108.238269 
L 547.2 165.6 
z
" style="fill: #808080; stroke: #ffffff; stroke-width: 1.5; stroke-linejoin: miter"/>
   </g>
   <g id="patch_8">
    <path d="M 408.601176 108.238282 
C 395.677918 139.463789 393.678689 174.158609 402.92969 206.661866 
C 412.180692 239.165125 432.149881 267.607413 459.578973 287.347917 
C 487.008065 307.088421 520.319487 316.991816 554.078063 315.442224 
C 587.836642 313.89264 620.100715 300.979198 645.60602 278.808899 
L 547.2 165.6 
z
" style="fill: #29bb00; fill-opacity: 0.75; stroke: #ffffff; stroke-width: 1.5; stroke-linejoin: miter"/>
   </g>
   <g id="patch_9">
    <path d="M 645.60602 278.808899 
C 660.180321 266.140298 672.172013 250.775702 680.921146 233.560694 
C 689.670279 216.345687 695.01332 197.601992 696.656182 178.361287 
L 547.2 165.6 
z
" style="fill: #ffbc37; fill-opacity: 0.75; stroke: #ffffff; stroke-width: 1.5; stroke-linejoin: miter"/>
   </g>
   <g id="patch_10">
    <path d="M 696.656182 178.361287 
C 698.042768 162.12211 696.773413 145.76497 692.89813 129.934124 
C 689.022848 114.103277 682.59319 99.009347 673.862412 85.246829 
L 547.2 165.6 
z
" style="fill: #35a7ff; fill-opacity: 0.75; stroke: #ffffff; stroke-width: 1.5; stroke-linejoin: miter"/>
   </g>
   <g id="patch_11">
    <path d="M 673.862412 85.246829 
C 660.326412 63.909749 641.615778 46.334941 619.473874 34.159948 
C 597.331966 21.984954 572.46847 15.6 547.200021 15.6 
L 547.2 165.6 
z
" style="fill: #b339ff; fill-opacity: 0.75; stroke: #ffffff; stroke-width: 1.5; stroke-linejoin: miter"/>
   </g>
  </g>
  <g id="axes_3">
   <g id="matplotlib.axis_5"/>
   <g id="matplotlib.axis_6"/>
   <g id="patch_12">
    <path d="M 907.2 15.6 
C 890.972506 15.6 874.85202 18.233315 859.468044 23.397116 
C 844.084068 28.560916 829.639492 36.187098 816.698375 45.977862 
C 803.757259 55.768625 792.490274 67.594846 783.337395 80.99471 
C 774.184516 94.394574 767.266455 109.19136 762.853362 124.807255 
C 758.440269 140.423149 756.590344 156.652204 757.375828 172.860676 
C 758.161312 189.069147 761.571844 205.043274 767.474245 220.159266 
C 773.376646 235.275257 781.693072 249.33376 792.098767 261.78579 
C 802.504463 274.23782 814.862194 284.919156 828.689391 293.412692 
C 842.516589 301.906228 857.630895 308.099949 873.442099 311.75199 
C 889.253302 315.404031 905.552878 316.466227 921.704329 314.897101 
C 937.855781 313.327975 953.646098 309.14822 968.458668 302.521056 
C 983.271238 295.893892 996.91071 286.906719 1008.844461 275.910487 
C 1020.778212 264.914255 1030.848858 252.053985 1038.663139 237.83187 
C 1046.477421 223.609755 1051.93228 208.213361 1054.814707 192.243916 
C 1057.697134 176.274472 1057.969112 159.942586 1055.620022 143.88602 
C 1053.270933 127.829454 1048.331755 112.259965 1040.995364 97.785543 
L 907.2 165.6 
z
" style="fill: #808080; stroke: #ffffff; stroke-width: 1.5; stroke-linejoin: miter"/>
   </g>
   <g id="patch_13">
    <path d="M 1040.995381 97.785571 
C 1036.710266 89.331199 1031.633443 81.301979 1025.833068 73.805697 
C 1020.032692 66.309414 1013.534835 59.379749 1006.426704 53.109727 
L 907.2 165.6 
z
" style="fill: #29bb00; fill-opacity: 0.75; stroke: #ffffff; stroke-width: 1.5; stroke-linejoin: miter"/>
   </g>
   <g id="patch_14">
    <path d="M 1006.426704 53.109727 
C 1003.267688 50.323189 999.992702 47.670959 996.610445 45.160089 
C 993.228188 42.64922 989.741656 40.281929 986.160139 38.064529 
L 907.2 165.6 
z
" style="fill: #ffbc37; fill-opacity: 0.75; stroke: #ffffff; stroke-width: 1.5; stroke-linejoin: miter"/>
   </g>
   <g id="patch_15">
    <path d="M 986.160139 38.064529 
C 981.66527 35.281647 977.026421 32.738341 972.263015 30.445258 
C 967.499608 28.152175 962.618305 26.112516 957.639544 24.334819 
L 907.2 165.6 
z
" style="fill: #35a7ff; fill-opacity: 0.75; stroke: #ffffff; stroke-width: 1.5; stroke-linejoin: miter"/>
   </g>
   <g id="patch_16">
    <path d="M 957.639544 24.334819 
C 949.56019 21.450041 941.248223 19.263692 932.795114 17.799832 
C 924.342005 16.335971 915.778872 15.6 907.199949 15.6 
L 907.2 165.6 
z
" style="fill: #b339ff; fill-opacity: 0.75; stroke: #ffffff; stroke-width: 1.5; stroke-linejoin: miter"/>
   </g>
  </g>
  <g id="axes_4">
   <g id="matplotlib.axis_7"/>
   <g id="matplotlib.axis_8"/>
   <g id="patch_17">
    <path d="M 1267.2 15.6 
C 1254.094303 15.6 1241.044942 17.317593 1228.385613 20.708857 
C 1215.726284 24.100121 1203.56582 29.1359 1192.215188 35.687422 
L 1267.2 165.6 
z
" style="fill: #808080; stroke: #ffffff; stroke-width: 1.5; stroke-linejoin: miter"/>
   </g>
   <g id="patch_18">
    <path d="M 1192.215199 35.687412 
C 1160.579384 53.947426 1136.677692 83.148931 1125.030209 117.769575 
C 1113.382734 152.390217 1114.773084 190.100739 1128.938339 223.769688 
C 1143.103594 257.43864 1169.090776 284.800811 1201.985338 300.681634 
C 1234.879898 316.562466 1272.468735 319.893519 1307.643403 310.044904 
L 1267.2 165.6 
z
" style="fill: #29bb00; fill-opacity: 0.75; stroke: #ffffff; stroke-width: 1.5; stroke-linejoin: miter"/>
   </g>
   <g id="patch_19">
    <path d="M 1307.643403 310.044904 
C 1339.976489 300.991903 1368.352083 281.339536 1388.196979 254.255117 
C 1408.041874 227.170698 1418.229414 194.191939 1417.117763 160.633788 
C 1416.006104 127.075638 1403.658331 94.843317 1382.064492 69.131617 
C 1360.470653 43.419917 1330.856661 25.688548 1297.995329 18.795208 
L 1267.2 165.6 
z
" style="fill: #ffbc37; fill-opacity: 0.75; stroke: #ffffff; stroke-width: 1.5; stroke-linejoin: miter"/>
   </g>
   <g id="patch_20">
    <path d="M 1297.995329 18.795208 
C 1294.342704 18.028991 1290.662789 17.399369 1286.9632 16.907648 
C 1283.263611 16.415928 1279.546921 16.06244 1275.820966 15.847943 
L 1267.2 165.6 
z
" style="fill: #35a7ff; fill-opacity: 0.75; stroke: #ffffff; stroke-width: 1.5; stroke-linejoin: miter"/>
   </g>
   <g id="patch_21">
    <path d="M 1275.820966 15.847943 
C 1274.385701 15.765313 1272.949323 15.703328 1271.512276 15.661995 
C 1270.075229 15.620662 1268.637662 15.6 1267.200021 15.6 
L 1267.2 165.6 
z
" style="fill: #b339ff; fill-opacity: 0.75; stroke: #ffffff; stroke-width: 1.5; stroke-linejoin: miter"/>
   </g>
  </g>
  <g id="axes_5">
   <g id="matplotlib.axis_9"/>
   <g id="matplotlib.axis_10"/>
   <g id="patch_22">
    <path d="M 1627.2 15.6 
C 1596.251074 15.6 1566.047738 25.17836 1540.755081 43.01421 
C 1515.462423 60.85006 1496.299095 86.084032 1485.90775 115.236321 
C 1475.516405 144.388611 1474.397718 176.054603 1482.705959 205.867506 
C 1491.014199 235.680408 1508.349059 262.203778 1532.320034 281.779998 
L 1627.2 165.6 
z
" style="fill: #808080; stroke: #ffffff; stroke-width: 1.5; stroke-linejoin: miter"/>
   </g>
   <g id="patch_23">
    <path d="M 1532.320048 281.780009 
C 1549.8116 296.064721 1570.305349 306.216515 1592.267761 311.475764 
C 1614.230176 316.735004 1637.099412 316.96714 1659.164055 312.154765 
L 1627.2 165.6 
z
" style="fill: #29bb00; fill-opacity: 0.75; stroke: #ffffff; stroke-width: 1.5; stroke-linejoin: miter"/>
   </g>
   <g id="patch_24">
    <path d="M 1659.164055 312.154765 
C 1695.642433 304.198716 1727.867828 282.902853 1749.48891 252.464394 
C 1771.109991 222.025935 1780.606423 184.58521 1776.106571 147.521453 
L 1627.2 165.6 
z
" style="fill: #ffbc37; fill-opacity: 0.75; stroke: #ffffff; stroke-width: 1.5; stroke-linejoin: miter"/>
   </g>
   <g id="patch_25">
    <path d="M 1776.106571 147.521453 
C 1772.916405 121.24519 1762.827258 96.275644 1746.867891 75.15888 
C 1730.908524 54.042117 1709.640466 37.521158 1685.23244 27.280672 
L 1627.2 165.6 
z
" style="fill: #35a7ff; fill-opacity: 0.75; stroke: #ffffff; stroke-width: 1.5; stroke-linejoin: miter"/>
   </g>
   <g id="patch_26">
    <path d="M 1685.23244 27.280672 
C 1676.067068 23.435305 1666.542137 20.510418 1656.798194 18.549169 
C 1647.054252 16.58792 1637.139454 15.600009 1627.200092 15.6 
L 1627.2 165.6 
z
" style="fill: #b339ff; fill-opacity: 0.75; stroke: #ffffff; stroke-width: 1.5; stroke-linejoin: miter"/>
   </g>
  </g>
  <g id="axes_6">
   <g id="matplotlib.axis_11"/>
   <g id="matplotlib.axis_12"/>
   <g id="patch_27">
    <path d="M 1987.2 15.6 
C 1973.791406 15.6 1960.443147 17.397904 1947.5124 20.945604 
C 1934.581652 24.493303 1922.184787 29.75887 1910.653522 36.601408 
L 1987.2 165.6 
z
" style="fill: #808080; stroke: #ffffff; stroke-width: 1.5; stroke-linejoin: miter"/>
   </g>
   <g id="patch_28">
    <path d="M 1910.653519 36.60141 
C 1902.451002 41.468699 1894.731381 47.107266 1887.599593 53.440471 
C 1880.467804 59.773676 1873.956322 66.772668 1868.153604 74.342362 
L 1987.2 165.6 
z
" style="fill: #29bb00; fill-opacity: 0.75; stroke: #ffffff; stroke-width: 1.5; stroke-linejoin: miter"/>
   </g>
   <g id="patch_29">
    <path d="M 1868.153604 74.342362 
C 1851.579045 95.964025 1841.203975 121.698148 1838.147186 148.769691 
C 1835.090407 175.841233 1839.465859 203.24087 1850.801732 228.014047 
L 1987.2 165.6 
z
" style="fill: #ffbc37; fill-opacity: 0.75; stroke: #ffffff; stroke-width: 1.5; stroke-linejoin: miter"/>
   </g>
   <g id="patch_30">
    <path d="M 1850.801732 228.014047 
C 1853.400462 233.693245 1856.351348 239.20459 1859.637161 244.515909 
C 1862.922975 249.827228 1866.537296 254.928155 1870.459025 259.788881 
L 1987.2 165.6 
z
" style="fill: #35a7ff; fill-opacity: 0.75; stroke: #ffffff; stroke-width: 1.5; stroke-linejoin: miter"/>
   </g>
   <g id="patch_31">
    <path d="M 1870.459025 259.788881 
C 1886.372008 279.511986 1907.026743 294.884468 1930.487793 304.465855 
C 1953.948843 314.047242 1979.459768 317.528633 2004.630228 314.583845 
C 2029.800685 311.639048 2053.819129 302.362986 2074.434932 287.624855 
C 2095.05073 272.886724 2111.599263 253.161679 2122.529837 230.298029 
C 2133.460411 207.434378 2138.420638 182.169244 2136.945744 156.870063 
C 2135.470842 131.570881 2127.608358 107.053287 2114.095031 85.614676 
C 2100.581705 64.176066 2081.853261 46.507658 2059.664521 34.264956 
C 2037.475782 22.022254 2012.542157 15.6 1987.200021 15.6 
L 1987.2 165.6 
z
" style="fill: #b339ff; fill-opacity: 0.75; stroke: #ffffff; stroke-width: 1.5; stroke-linejoin: miter"/>
   </g>
  </g>
  <g id="axes_7">
   <g id="matplotlib.axis_13"/>
   <g id="matplotlib.axis_14"/>
   <g id="patch_32">
    <path d="M 2347.2 15.6 
C 2325.966733 15.6 2304.97347 20.108516 2285.612487 28.826544 
C 2266.251505 37.544571 2248.960486 50.275026 2234.886174 66.173623 
C 2220.811862 82.072219 2210.272426 100.779547 2203.966844 121.054933 
C 2197.661262 141.330319 2195.73208 162.715408 2198.307242 183.79194 
L 2347.2 165.6 
z
" style="fill: #808080; stroke: #ffffff; stroke-width: 1.5; stroke-linejoin: miter"/>
   </g>
   <g id="patch_33">
    <path d="M 2198.307243 183.791923 
C 2200.569033 202.30367 2206.263452 220.232315 2215.097862 236.656496 
C 2223.932272 253.080676 2235.752713 267.714156 2249.951747 279.804973 
L 2347.2 165.6 
z
" style="fill: #29bb00; fill-opacity: 0.75; stroke: #ffffff; stroke-width: 1.5; stroke-linejoin: miter"/>
   </g>
   <g id="patch_34">
    <path d="M 2249.951747 279.804973 
C 2268.138554 295.291476 2289.764249 306.211973 2313.023011 311.65456 
C 2336.281771 317.097138 2360.507615 316.905968 2383.677589 311.097027 
C 2406.847563 305.288078 2428.298288 294.027637 2446.23844 278.25606 
C 2464.178592 262.484483 2478.094527 242.65332 2486.824223 220.418572 
C 2495.553919 198.183824 2498.847413 174.182139 2496.429687 150.417749 
C 2494.011962 126.65336 2485.952228 103.806719 2472.923532 83.785616 
C 2459.894836 63.764517 2442.27021 47.142215 2421.521392 35.306753 
C 2400.772574 23.471291 2377.493671 16.761548 2353.628558 15.737821 
L 2347.2 165.6 
z
" style="fill: #ffbc37; fill-opacity: 0.75; stroke: #ffffff; stroke-width: 1.5; stroke-linejoin: miter"/>
   </g>
   <g id="patch_35">
    <path d="M 2353.628558 15.737821 
C 2352.804669 15.702478 2351.980502 15.673931 2351.156142 15.652178 
C 2350.331782 15.630425 2349.507257 15.615485 2348.68265 15.607331 
L 2347.2 165.6 
z
" style="fill: #35a7ff; fill-opacity: 0.75; stroke: #ffffff; stroke-width: 1.5; stroke-linejoin: miter"/>
   </g>
   <g id="patch_36">
    <path d="M 2348.68265 15.607331 
C 2348.435565 15.604891 2348.188475 15.603058 2347.94138 15.601833 
C 2347.694286 15.600608 2347.44719 15.6 2347.200092 15.6 
L 2347.2 165.6 
z
" style="fill: #b339ff; fill-opacity: 0.75; stroke: #ffffff; stroke-width: 1.5; stroke-linejoin: miter"/>
   </g>
  </g>
  <g id="axes_8">
   <g id="matplotlib.axis_15"/>
   <g id="matplotlib.axis_16"/>
   <g id="patch_37">
    <path d="M 2707.2 15.6 
C 2690.743575 15.6 2674.398755 18.308139 2658.821728 23.615695 
C 2643.244701 28.923251 2628.646749 36.758234 2615.613929 46.806096 
C 2602.58111 56.853958 2591.290195 68.978413 2582.194478 82.692706 
C 2573.09876 96.407 2566.32161 111.525115 2562.135108 127.440111 
C 2557.948606 143.355108 2556.409535 159.85112 2557.579685 176.26589 
C 2558.749834 192.68066 2562.613332 208.791543 2569.015072 223.951742 
C 2575.416813 239.111941 2584.269964 253.115829 2595.219104 265.401197 
C 2606.168243 277.686565 2619.064859 288.086778 2633.391198 296.184305 
C 2647.717537 304.281832 2663.27928 309.966839 2679.451677 313.011094 
C 2695.624075 316.055348 2712.187769 316.417559 2728.477784 314.083184 
C 2744.7678 311.748809 2760.563185 306.749511 2775.229808 299.285995 
C 2789.896432 291.822478 2803.235361 281.995977 2814.711083 270.20099 
C 2826.186805 258.406003 2835.643668 244.802514 2842.70201 229.936656 
C 2849.760352 215.070798 2854.324437 199.144208 2856.211033 182.796282 
C 2858.097628 166.448356 2857.281145 149.900833 2853.794362 133.818039 
C 2850.307579 117.735245 2844.19779 102.335322 2835.710282 88.236523 
L 2707.2 165.6 
z
" style="fill: #808080; stroke: #ffffff; stroke-width: 1.5; stroke-linejoin: miter"/>
   </g>
   <g id="patch_38">
    <path d="M 2835.710293 88.236536 
C 2835.142693 87.293686 2834.564713 86.357076 2833.976505 85.426949 
C 2833.388296 84.496821 2832.789886 83.57322 2832.181347 82.656262 
L 2707.2 165.6 
z
" style="fill: #29bb00; fill-opacity: 0.75; stroke: #ffffff; stroke-width: 1.5; stroke-linejoin: miter"/>
   </g>
   <g id="patch_39">
    <path d="M 2832.181347 82.656262 
C 2824.695024 71.375723 2815.715811 61.160476 2805.48862 52.289159 
C 2795.261428 43.417842 2783.880109 35.97186 2771.655079 30.154283 
L 2707.2 165.6 
z
" style="fill: #ffbc37; fill-opacity: 0.75; stroke: #ffffff; stroke-width: 1.5; stroke-linejoin: miter"/>
   </g>
   <g id="patch_40">
    <path d="M 2771.655079 30.154283 
C 2769.462024 29.110662 2767.243976 28.12048 2765.002834 27.184568 
C 2762.761692 26.248656 2760.498117 25.367309 2758.21418 24.541314 
L 2707.2 165.6 
z
" style="fill: #35a7ff; fill-opacity: 0.75; stroke: #ffffff; stroke-width: 1.5; stroke-linejoin: miter"/>
   </g>
   <g id="patch_41">
    <path d="M 2758.21418 24.541314 
C 2750.050757 21.588997 2741.646392 19.350882 2733.095854 17.852224 
C 2724.545316 16.353567 2715.88083 15.6 2707.199949 15.6 
L 2707.2 165.6 
z
" style="fill: #b339ff; fill-opacity: 0.75; stroke: #ffffff; stroke-width: 1.5; stroke-linejoin: miter"/>
   </g>
  </g>
 </g>
</svg>
