<?xml version="1.0" encoding="utf-8" standalone="no"?>
<!DOCTYPE svg PUBLIC "-//W3C//DTD SVG 1.1//EN"
  "http://www.w3.org/Graphics/SVG/1.1/DTD/svg11.dtd">
<svg xmlns:xlink="http://www.w3.org/1999/xlink" width="348.71pt" height="126.643101pt" viewBox="0 0 348.71 126.643101" xmlns="http://www.w3.org/2000/svg" version="1.1">
 <metadata>
  <rdf:RDF xmlns:dc="http://purl.org/dc/elements/1.1/" xmlns:cc="http://creativecommons.org/ns#" xmlns:rdf="http://www.w3.org/1999/02/22-rdf-syntax-ns#">
   <cc:Work>
    <dc:type rdf:resource="http://purl.org/dc/dcmitype/StillImage"/>
    <dc:date>2026-06-22T13:24:26.186918</dc:date>
    <dc:format>image/svg+xml</dc:format>
    <dc:creator>
     <cc:Agent>
      <dc:title>Matplotlib v3.10.7, https://matplotlib.org/</dc:title>
     </cc:Agent>
    </dc:creator>
   </cc:Work>
  </rdf:RDF>
 </metadata>
 <defs>
  <style type="text/css">*{stroke-linejoin: round; stroke-linecap: butt}</style>
 </defs>
 <g id="figure_1">
  <g id="patch_1">
   <path d="M -0 126.643101 
L 348.71 126.643101 
L 348.71 0 
L -0 0 
z
" style="fill: #ffffff"/>
  </g>
  <g id="axes_1">
   <g id="patch_2">
    <path d="M 24.71 106.21232 
L 341.51 106.21232 
L 341.51 8.29232 
L 24.71 8.29232 
z
" style="fill: #ffffff"/>
   </g>
   <g id="matplotlib.axis_1">
    <g id="xtick_1">
     <g id="text_1">
      <text style="font-size: 9px; font-family: 'Arial', 'DejaVu Sans', 'Helvetica', 'Liberation Sans', 'Bitstream Vera Sans', sans-serif; text-anchor: middle; fill: #262626" x="58.412128" y="117.654351" transform="rotate(-0 58.412128 117.654351)">0.2</text>
     </g>
    </g>
    <g id="xtick_2">
     <g id="text_2">
      <text style="font-size: 9px; font-family: 'Arial', 'DejaVu Sans', 'Helvetica', 'Liberation Sans', 'Bitstream Vera Sans', sans-serif; text-anchor: middle; fill: #262626" x="125.816383" y="117.654351" transform="rotate(-0 125.816383 117.654351)">0.4</text>
     </g>
    </g>
    <g id="xtick_3">
     <g id="text_3">
      <text style="font-size: 9px; font-family: 'Arial', 'DejaVu Sans', 'Helvetica', 'Liberation Sans', 'Bitstream Vera Sans', sans-serif; text-anchor: middle; fill: #262626" x="193.220638" y="117.654351" transform="rotate(-0 193.220638 117.654351)">0.6</text>
     </g>
    </g>
    <g id="xtick_4">
     <g id="text_4">
      <text style="font-size: 9px; font-family: 'Arial', 'DejaVu Sans', 'Helvetica', 'Liberation Sans', 'Bitstream Vera Sans', sans-serif; text-anchor: middle; fill: #262626" x="260.624894" y="117.654351" transform="rotate(-0 260.624894 117.654351)">0.8</text>
     </g>
    </g>
    <g id="xtick_5">
     <g id="text_5">
      <text style="font-size: 9px; font-family: 'Arial', 'DejaVu Sans', 'Helvetica', 'Liberation Sans', 'Bitstream Vera Sans', sans-serif; text-anchor: middle; fill: #262626" x="328.029149" y="117.654351" transform="rotate(-0 328.029149 117.654351)">1.0</text>
     </g>
    </g>
   </g>
   <g id="matplotlib.axis_2">
    <g id="ytick_1">
     <g id="text_6">
      <text style="font-size: 9px; font-family: 'Arial', 'DejaVu Sans', 'Helvetica', 'Liberation Sans', 'Bitstream Vera Sans', sans-serif; text-anchor: end; fill: #262626" x="19.71" y="98.789857" transform="rotate(-0 19.71 98.789857)">0.2</text>
     </g>
    </g>
    <g id="ytick_2">
     <g id="text_7">
      <text style="font-size: 9px; font-family: 'Arial', 'DejaVu Sans', 'Helvetica', 'Liberation Sans', 'Bitstream Vera Sans', sans-serif; text-anchor: end; fill: #262626" x="19.71" y="77.502901" transform="rotate(-0 19.71 77.502901)">0.4</text>
     </g>
    </g>
    <g id="ytick_3">
     <g id="text_8">
      <text style="font-size: 9px; font-family: 'Arial', 'DejaVu Sans', 'Helvetica', 'Liberation Sans', 'Bitstream Vera Sans', sans-serif; text-anchor: end; fill: #262626" x="19.71" y="56.215944" transform="rotate(-0 19.71 56.215944)">0.6</text>
     </g>
    </g>
    <g id="ytick_4">
     <g id="text_9">
      <text style="font-size: 9px; font-family: 'Arial', 'DejaVu Sans', 'Helvetica', 'Liberation Sans', 'Bitstream Vera Sans', sans-serif; text-anchor: end; fill: #262626" x="19.71" y="34.928988" transform="rotate(-0 19.71 34.928988)">0.8</text>
     </g>
    </g>
    <g id="ytick_5">
     <g id="text_10">
      <text style="font-size: 9px; font-family: 'Arial', 'DejaVu Sans', 'Helvetica', 'Liberation Sans', 'Bitstream Vera Sans', sans-serif; text-anchor: end; fill: #262626" x="19.71" y="13.642031" transform="rotate(-0 19.71 13.642031)">1.0</text>
     </g>
    </g>
   </g>
   <g id="line2d_1">
    <path d="M 46.460041 39.640595 
L 70.983739 39.241365 
L 88.890608 42.572664 
L 119.700956 55.811833 
L 143.384222 66.904966 
L 170.651373 49.576084 
L 192.534428 64.235674 
L 218.448599 60.486037 
L 241.791462 48.078229 
L 271.917304 50.477493 
L 284.326139 59.993612 
L 323.33132 77.516095 
" clip-path="url(#p86f470aa65)" style="fill: none; stroke: #000000; stroke-opacity: 0.85; stroke-width: 1.8; stroke-linecap: round"/>
   </g>
   <g id="line2d_2">
    <path d="M 46.460041 35.678634 
L 70.983739 33.160988 
L 88.890608 34.528558 
L 119.700956 39.650539 
L 143.384222 45.575932 
L 170.651373 31.686587 
L 192.534428 36.796524 
L 218.448599 31.130198 
L 241.791462 23.430914 
L 271.917304 21.854586 
L 284.326139 23.100275 
L 323.33132 21.666501 
" clip-path="url(#p86f470aa65)" style="fill: none; stroke-dasharray: 6.66,2.88; stroke-dashoffset: 0; stroke: #000000; stroke-opacity: 0.95; stroke-width: 1.8"/>
   </g>
   <g id="line2d_3">
    <path d="M 35.020288 65.396692 
L 75.200595 59.694665 
L 98.317939 62.59448 
L 123.045119 64.27805 
L 147.555339 62.198294 
L 169.766415 64.383102 
L 193.924311 69.294646 
L 213.679257 72.173681 
L 245.355471 77.989102 
L 258.700275 90.502428 
L 289.199424 75.3633 
L 308.674179 85.02889 
" clip-path="url(#p86f470aa65)" style="fill: none; stroke: #29bb00; stroke-opacity: 0.85; stroke-width: 1.8; stroke-linecap: round"/>
   </g>
   <g id="line2d_4">
    <path d="M 35.020288 57.689982 
L 75.200595 49.966974 
L 98.317939 48.641542 
L 123.045119 45.614125 
L 147.555339 41.679954 
L 169.766415 40.087937 
L 193.924311 39.469251 
L 213.679257 36.866502 
L 245.355471 34.313003 
L 258.700275 34.719315 
L 289.199424 26.79291 
L 308.674179 24.700253 
" clip-path="url(#p86f470aa65)" style="fill: none; stroke-dasharray: 6.66,2.88; stroke-dashoffset: 0; stroke: #29bb00; stroke-opacity: 0.95; stroke-width: 1.8"/>
   </g>
   <g id="line2d_5">
    <path d="M 46.460041 40.622197 
L 70.983739 32.618225 
L 99.551823 34.188994 
L 119.700956 39.785881 
L 145.200884 57.881363 
L 168.872608 62.556576 
L 191.125106 52.4346 
L 212.816548 54.333256 
L 243.139787 66.303518 
L 270.468818 77.1574 
L 292.986388 66.663518 
L 319.034163 73.591483 
" clip-path="url(#p86f470aa65)" style="fill: none; stroke: #ffbc37; stroke-opacity: 0.85; stroke-width: 1.8; stroke-linecap: round"/>
   </g>
   <g id="line2d_6">
    <path d="M 46.460041 37.130026 
L 70.983739 28.524976 
L 99.551823 27.869817 
L 119.700956 30.464133 
L 145.200884 39.393776 
L 168.872608 40.213893 
L 191.125106 30.031325 
L 212.816548 29.311816 
L 243.139787 30.783591 
L 270.468818 30.78942 
L 292.986388 23.564448 
L 319.034163 21.465911 
" clip-path="url(#p86f470aa65)" style="fill: none; stroke-dasharray: 6.66,2.88; stroke-dashoffset: 0; stroke: #ffbc37; stroke-opacity: 0.95; stroke-width: 1.8"/>
   </g>
   <g id="line2d_7">
    <path d="M 46.460041 34.617129 
L 66.268044 33.989199 
L 97.084055 32.396322 
L 123.850304 39.552189 
L 142.772243 53.279122 
L 169.766415 54.948779 
L 190.412939 61.723934 
L 220.625198 62.486095 
L 241.791462 51.351488 
L 268.637906 63.625592 
L 291.734649 66.359877 
L 319.034163 80.666613 
" clip-path="url(#p86f470aa65)" style="fill: none; stroke: #1988ff; stroke-opacity: 0.85; stroke-width: 1.8; stroke-linecap: round"/>
   </g>
   <g id="line2d_8">
    <path d="M 46.460041 31.557334 
L 66.268044 28.984006 
L 97.084055 26.659849 
L 123.850304 29.699926 
L 142.772243 37.492041 
L 169.766415 34.669014 
L 190.412939 35.668294 
L 220.625198 32.197912 
L 241.791462 25.793682 
L 268.637906 25.923394 
L 291.734649 23.422941 
L 319.034163 22.677167 
" clip-path="url(#p86f470aa65)" style="fill: none; stroke-dasharray: 6.66,2.88; stroke-dashoffset: 0; stroke: #1988ff; stroke-opacity: 0.95; stroke-width: 1.8"/>
   </g>
   <g id="line2d_9">
    <path d="M 46.460041 38.196839 
L 66.268044 36.336401 
L 94.495792 34.613898 
L 119.700956 47.815112 
L 148.706464 48.468478 
L 169.766415 55.247206 
L 189.695648 59.744781 
L 216.788389 50.668786 
L 232.407458 56.966344 
L 269.555526 58.463522 
L 291.104853 59.972609 
L 315.564137 75.277519 
" clip-path="url(#p86f470aa65)" style="fill: none; stroke: #b339ff; stroke-opacity: 0.85; stroke-width: 1.8; stroke-linecap: round"/>
   </g>
   <g id="line2d_10">
    <path d="M 46.460041 34.696097 
L 66.268044 30.850194 
L 94.495792 27.708733 
L 119.700956 35.518156 
L 148.706464 33.287113 
L 169.766415 34.469066 
L 189.695648 34.728549 
L 216.788389 27.809908 
L 232.407458 28.3534 
L 269.555526 24.576565 
L 291.104853 22.39128 
L 315.564137 22.470119 
" clip-path="url(#p86f470aa65)" style="fill: none; stroke-dasharray: 6.66,2.88; stroke-dashoffset: 0; stroke: #b339ff; stroke-opacity: 0.95; stroke-width: 1.8"/>
   </g>
   <g id="patch_3">
    <path d="M 24.71 106.21232 
L 24.71 8.29232 
" style="fill: none; stroke: #262626; stroke-width: 0.6; stroke-linejoin: miter; stroke-linecap: square"/>
   </g>
   <g id="patch_4">
    <path d="M 341.51 106.21232 
L 341.51 8.29232 
" style="fill: none; stroke: #262626; stroke-width: 0.6; stroke-linejoin: miter; stroke-linecap: square"/>
   </g>
   <g id="patch_5">
    <path d="M 24.71 106.21232 
L 341.51 106.21232 
" style="fill: none; stroke: #262626; stroke-width: 0.6; stroke-linejoin: miter; stroke-linecap: square"/>
   </g>
   <g id="patch_6">
    <path d="M 24.71 8.29232 
L 341.51 8.29232 
" style="fill: none; stroke: #262626; stroke-width: 0.6; stroke-linejoin: miter; stroke-linecap: square"/>
   </g>
  </g>
 </g>
 <defs>
  <clipPath id="p86f470aa65">
   <rect x="24.71" y="8.29232" width="316.8" height="97.92"/>
  </clipPath>
 </defs>
</svg>
